<svg id="Camada_1" data-name="Camada 1" xmlns="http://www.w3.org/2000/svg" viewBox="0 0 144.76 224.61"><defs><style>.cls-1{fill:#fff;}</style></defs><path class="cls-1" d="M558.61,539.31l-41.82-35.84q-27.55-23.61-55.13-47.22c-4.57-3.91-7.12-8.67-6.34-14.76a15.2,15.2,0,0,1,10-12.94c6-2.39,11.54-1.25,16.41,2.87,9.7,8.22,19.33,16.53,29,24.81Q551.35,491,592,525.8c5.35,4.57,8.58,10,6.55,17a19.49,19.49,0,0,1-5.54,9Q537.07,600.1,480.8,648a15.76,15.76,0,0,1-22.47-1.67c-5.95-7-5.05-16.69,2.26-23q47.45-40.68,94.91-81.3C556.44,541.27,557.34,540.44,558.61,539.31Z" transform="translate(-454.42 -427.31)"/></svg>